%TF.GenerationSoftware,KiCad,Pcbnew,5.99.0-unknown-4d9d1a5~100~ubuntu19.10.1*%
%TF.CreationDate,2020-03-24T11:12:33+01:00*%
%TF.ProjectId,LEDBoard_4x6_p20x5,4c454442-6f61-4726-945f-3478365f7032,v1.0.0*%
%TF.SameCoordinates,Original*%
%TF.FileFunction,Plated,1,2,PTH,Drill*%
%TF.FilePolarity,Positive*%
%FSLAX46Y46*%
G04 Gerber Fmt 4.6, Leading zero omitted, Abs format (unit mm)*
G04 Created by KiCad (PCBNEW 5.99.0-unknown-4d9d1a5~100~ubuntu19.10.1) date 2020-03-24 11:12:33*
%MOMM*%
%LPD*%
G01*
G04 APERTURE LIST*
%TA.AperFunction,ComponentDrill*%
%ADD10C,0.200000*%
%TD*%
%TA.AperFunction,ViaDrill*%
%ADD11C,0.300000*%
%TD*%
%TA.AperFunction,ComponentDrill*%
%ADD12C,0.300000*%
%TD*%
%TA.AperFunction,ComponentDrill*%
%ADD13C,1.000000*%
%TD*%
%TA.AperFunction,ComponentDrill*%
%ADD14C,3.200000*%
%TD*%
G04 APERTURE END LIST*
D10*
%TO.C,D_0x4*%
X69230000Y-106915000D03*
X70000000Y-106915000D03*
X70770000Y-106915000D03*
%TO.C,D_0x5*%
X69230000Y-111915000D03*
X70000000Y-111915000D03*
X70770000Y-111915000D03*
%TO.C,D_0x0*%
X69230000Y-86915000D03*
X70000000Y-86915000D03*
X70770000Y-86915000D03*
%TO.C,D_0x3*%
X69230000Y-101915000D03*
X70000000Y-101915000D03*
X70770000Y-101915000D03*
%TO.C,D_3x1*%
X129230000Y-91915000D03*
X130000000Y-91915000D03*
X130770000Y-91915000D03*
%TO.C,D_2x4*%
X109230000Y-106915000D03*
X110000000Y-106915000D03*
X110770000Y-106915000D03*
%TO.C,D_1x0*%
X89230000Y-86915000D03*
X90000000Y-86915000D03*
X90770000Y-86915000D03*
%TO.C,D_0x2*%
X69230000Y-96915000D03*
X70000000Y-96915000D03*
X70770000Y-96915000D03*
%TO.C,D_3x5*%
X129230000Y-111915000D03*
X130000000Y-111915000D03*
X130770000Y-111915000D03*
%TO.C,D_2x0*%
X109230000Y-86915000D03*
X110000000Y-86915000D03*
X110770000Y-86915000D03*
%TO.C,D_1x1*%
X89230000Y-91915000D03*
X90000000Y-91915000D03*
X90770000Y-91915000D03*
%TO.C,D_2x1*%
X109230000Y-91915000D03*
X110000000Y-91915000D03*
X110770000Y-91915000D03*
%TO.C,D_3x0*%
X129230000Y-86915000D03*
X130000000Y-86915000D03*
X130770000Y-86915000D03*
%TO.C,D_2x5*%
X109230000Y-111915000D03*
X110000000Y-111915000D03*
X110770000Y-111915000D03*
%TO.C,D_1x3*%
X89230000Y-102000000D03*
X90000000Y-102000000D03*
X90770000Y-102000000D03*
%TO.C,D_1x4*%
X89230000Y-106915000D03*
X90000000Y-106915000D03*
X90770000Y-106915000D03*
%TO.C,D_1x5*%
X89230000Y-111915000D03*
X90000000Y-111915000D03*
X90770000Y-111915000D03*
%TO.C,D_3x4*%
X129230000Y-106915000D03*
X130000000Y-106915000D03*
X130770000Y-106915000D03*
%TO.C,D_3x3*%
X129230000Y-101915000D03*
X130000000Y-101915000D03*
X130770000Y-101915000D03*
%TO.C,D_2x2*%
X109230000Y-96915000D03*
X110000000Y-96915000D03*
X110770000Y-96915000D03*
%TO.C,D_2x3*%
X109230000Y-101915000D03*
X110000000Y-101915000D03*
X110770000Y-101915000D03*
%TO.C,D_1x2*%
X89230000Y-96915000D03*
X90000000Y-96915000D03*
X90770000Y-96915000D03*
%TO.C,D_0x1*%
X69230000Y-91915000D03*
X70000000Y-91915000D03*
X70770000Y-91915000D03*
%TO.C,D_3x2*%
X129230000Y-96915000D03*
X130000000Y-96915000D03*
X130770000Y-96915000D03*
%TD*%
D11*
X69175920Y-89200000D03*
X69241042Y-109247014D03*
X69250000Y-99250000D03*
X69900000Y-89800000D03*
X70000000Y-99750000D03*
X70000000Y-109500000D03*
X70800000Y-89975010D03*
X70991820Y-99974968D03*
X72000000Y-109750000D03*
X72200000Y-88200000D03*
X72500000Y-97750000D03*
X73250000Y-104000000D03*
X73400000Y-102200000D03*
X73500000Y-112000000D03*
X73750000Y-92250000D03*
X73750000Y-94250000D03*
X74135324Y-107725000D03*
X74400000Y-112000000D03*
X74500000Y-92250000D03*
X74600000Y-102200000D03*
X74750000Y-94250000D03*
X74850000Y-104250000D03*
X75219661Y-111969661D03*
X75250000Y-113175000D03*
X75474990Y-102750000D03*
X75500000Y-103500000D03*
X75750000Y-112500000D03*
X84250000Y-93750000D03*
X84700000Y-94400000D03*
X84750000Y-89000000D03*
X84750000Y-102750000D03*
X84863528Y-108112457D03*
X85275010Y-103750000D03*
X85599999Y-107800000D03*
X85700000Y-87100000D03*
X86000000Y-94200000D03*
X86000000Y-98100000D03*
X86491069Y-104286426D03*
X87000000Y-112250000D03*
X87250000Y-98599968D03*
X87400000Y-109600000D03*
X88000000Y-89700021D03*
X88000000Y-91700055D03*
X88000000Y-112250000D03*
X88300000Y-102000000D03*
X88583986Y-94600088D03*
X88710599Y-99800037D03*
X89500000Y-94474990D03*
X89781563Y-109400011D03*
X89900000Y-99400020D03*
X90038109Y-89500010D03*
X90700000Y-99100000D03*
X90750000Y-109250000D03*
X90874990Y-89250000D03*
X92700000Y-100900000D03*
X95900000Y-95300000D03*
X97300000Y-94900000D03*
X100892549Y-105825010D03*
X101700000Y-105825010D03*
X105900000Y-94600000D03*
X106500000Y-95600000D03*
X109000000Y-89250000D03*
X109125010Y-99285137D03*
X109125010Y-109287693D03*
X109830585Y-109664763D03*
X109882230Y-99543275D03*
X110000000Y-89500000D03*
X110750000Y-100000000D03*
X110750000Y-109800039D03*
X110931355Y-89800039D03*
X111800000Y-94200000D03*
X112100000Y-97300000D03*
X113200000Y-94400000D03*
X114136853Y-89225000D03*
X114175010Y-107800010D03*
X114300000Y-99200000D03*
X114600000Y-103500000D03*
X114800000Y-111500000D03*
X115200000Y-104000000D03*
X115324047Y-112216031D03*
X124198612Y-93951378D03*
X124300000Y-103300000D03*
X124500000Y-112250000D03*
X124500000Y-113250000D03*
X124750000Y-94750000D03*
X124750000Y-104250000D03*
X125000000Y-93500000D03*
X125200000Y-102900000D03*
X125500000Y-112000000D03*
X125700000Y-87900000D03*
X125700000Y-99000000D03*
X125750000Y-108000000D03*
X125800000Y-89600000D03*
X125800000Y-97300000D03*
X126500000Y-104500000D03*
X126750000Y-95000000D03*
X126750000Y-112000000D03*
X127700000Y-98800000D03*
X127750000Y-106750000D03*
X127981258Y-109600023D03*
X129000000Y-100000000D03*
X129750000Y-90000000D03*
X130000000Y-109600000D03*
X130250000Y-100000000D03*
X130750000Y-89250000D03*
X130750000Y-90250000D03*
X130750000Y-99250000D03*
X130750000Y-109250000D03*
D12*
%TO.C,U2*%
X78700000Y-98400000D03*
X78700000Y-99700000D03*
X78700000Y-101000000D03*
X78700000Y-102300000D03*
X78700000Y-103600000D03*
X80000000Y-98400000D03*
X80000000Y-99700000D03*
X80000000Y-101000000D03*
X80000000Y-102300000D03*
X80000000Y-103600000D03*
X81300000Y-98400000D03*
X81300000Y-99700000D03*
X81300000Y-101000000D03*
X81300000Y-102300000D03*
X81300000Y-103600000D03*
%TO.C,U1*%
X78700000Y-88900000D03*
X78700000Y-90200000D03*
X78700000Y-91500000D03*
X78700000Y-92800000D03*
X78700000Y-94100000D03*
X80000000Y-88900000D03*
X80000000Y-90200000D03*
X80000000Y-91500000D03*
X80000000Y-92800000D03*
X80000000Y-94100000D03*
X81300000Y-88900000D03*
X81300000Y-90200000D03*
X81300000Y-91500000D03*
X81300000Y-92800000D03*
X81300000Y-94100000D03*
%TO.C,U6*%
X118700000Y-107400000D03*
X118700000Y-108700000D03*
X118700000Y-110000000D03*
X118700000Y-111300000D03*
X118700000Y-112600000D03*
X120000000Y-107400000D03*
X120000000Y-108700000D03*
X120000000Y-110000000D03*
X120000000Y-111300000D03*
X120000000Y-112600000D03*
X121300000Y-107400000D03*
X121300000Y-108700000D03*
X121300000Y-110000000D03*
X121300000Y-111300000D03*
X121300000Y-112600000D03*
%TO.C,U5*%
X118700000Y-98400000D03*
X118700000Y-99700000D03*
X118700000Y-101000000D03*
X118700000Y-102300000D03*
X118700000Y-103600000D03*
X120000000Y-98400000D03*
X120000000Y-99700000D03*
X120000000Y-101000000D03*
X120000000Y-102300000D03*
X120000000Y-103600000D03*
X121300000Y-98400000D03*
X121300000Y-99700000D03*
X121300000Y-101000000D03*
X121300000Y-102300000D03*
X121300000Y-103600000D03*
%TO.C,U4*%
X118700000Y-88900000D03*
X118700000Y-90200000D03*
X118700000Y-91500000D03*
X118700000Y-92800000D03*
X118700000Y-94100000D03*
X120000000Y-88900000D03*
X120000000Y-90200000D03*
X120000000Y-91500000D03*
X120000000Y-92800000D03*
X120000000Y-94100000D03*
X121300000Y-88900000D03*
X121300000Y-90200000D03*
X121300000Y-91500000D03*
X121300000Y-92800000D03*
X121300000Y-94100000D03*
%TO.C,U3*%
X78700000Y-107400000D03*
X78700000Y-108700000D03*
X78700000Y-110000000D03*
X78700000Y-111300000D03*
X78700000Y-112600000D03*
X80000000Y-107400000D03*
X80000000Y-108700000D03*
X80000000Y-110000000D03*
X80000000Y-111300000D03*
X80000000Y-112600000D03*
X81300000Y-107400000D03*
X81300000Y-108700000D03*
X81300000Y-110000000D03*
X81300000Y-111300000D03*
X81300000Y-112600000D03*
D13*
%TO.C,J2*%
X96190000Y-102500000D03*
X98730000Y-102500000D03*
X101270000Y-102500000D03*
X103810000Y-102500000D03*
%TO.C,J4*%
X101270000Y-92500000D03*
X103810000Y-92500000D03*
%TO.C,J3*%
X96190000Y-107620000D03*
X98730000Y-107620000D03*
%TO.C,J1*%
X96190000Y-97500000D03*
X98730000Y-97500000D03*
X101270000Y-97500000D03*
X103810000Y-97500000D03*
D14*
%TO.C,H1*%
X95000000Y-90000000D03*
%TO.C,H2*%
X105000000Y-110000000D03*
M02*
