M48
; DRILL file {KiCad 5.99.0-unknown-103b0c1~100~ubuntu19.10.1} date Sun Mar 22 12:16:03 2020
; FORMAT={-:-/ absolute / inch / decimal}
; #@! TF.CreationDate,2020-03-22T12:16:03+01:00
; #@! TF.GenerationSoftware,Kicad,Pcbnew,5.99.0-unknown-103b0c1~100~ubuntu19.10.1
; #@! TF.FileFunction,Plated,1,2,PTH
FMAT,2
INCH
T1C0.0079
T2C0.0118
T3C0.0394
T4C0.1260
%
G90
G05
T1
X2.7256Y-3.4219
X2.7559Y-3.4219
X2.7862Y-3.4219
X4.3004Y-3.4219
X4.3307Y-3.4219
X4.361Y-3.4219
X2.7256Y-4.0124
X2.7559Y-4.0124
X2.7862Y-4.0124
X4.3004Y-3.6187
X4.3307Y-3.6187
X4.361Y-3.6187
X2.7256Y-4.2093
X2.7559Y-4.2093
X2.7862Y-4.2093
X5.0878Y-3.4219
X5.1181Y-3.4219
X5.1484Y-3.4219
X2.7256Y-4.4061
X2.7559Y-4.4061
X2.7862Y-4.4061
X5.0878Y-4.0124
X5.1181Y-4.0124
X5.1484Y-4.0124
X5.0878Y-4.4061
X5.1181Y-4.4061
X5.1484Y-4.4061
X4.3004Y-4.4061
X4.3307Y-4.4061
X4.361Y-4.4061
X3.513Y-4.0157
X3.5433Y-4.0157
X3.5736Y-4.0157
X3.513Y-4.2093
X3.5433Y-4.2093
X3.5736Y-4.2093
X3.513Y-4.4061
X3.5433Y-4.4061
X3.5736Y-4.4061
X2.7256Y-3.8156
X2.7559Y-3.8156
X2.7862Y-3.8156
X5.0878Y-3.8156
X5.1181Y-3.8156
X5.1484Y-3.8156
X4.3004Y-3.8156
X4.3307Y-3.8156
X4.361Y-3.8156
X4.3004Y-4.0124
X4.3307Y-4.0124
X4.361Y-4.0124
X3.513Y-3.8156
X3.5433Y-3.8156
X3.5736Y-3.8156
X3.513Y-3.4219
X3.5433Y-3.4219
X3.5736Y-3.4219
X5.0878Y-4.2093
X5.1181Y-4.2093
X5.1484Y-4.2093
X3.513Y-3.6187
X3.5433Y-3.6187
X3.5736Y-3.6187
X5.0878Y-3.6187
X5.1181Y-3.6187
X5.1484Y-3.6187
X2.7256Y-3.6187
X2.7559Y-3.6187
X2.7862Y-3.6187
X4.3004Y-4.2093
X4.3307Y-4.2093
X4.361Y-4.2093
T2
X2.7235Y-3.5118
X2.726Y-4.3011
X2.7264Y-3.9075
X2.752Y-3.5354
X2.7559Y-3.9272
X2.7559Y-4.311
X2.7874Y-3.5423
X2.795Y-3.936
X2.8346Y-4.3209
X2.8425Y-3.4724
X2.8543Y-3.8484
X2.8839Y-4.0945
X2.8898Y-4.0236
X2.8937Y-4.4094
X2.9035Y-3.6319
X2.9035Y-3.7106
X2.9187Y-4.2411
X2.9291Y-4.4094
X2.9331Y-3.6319
X2.937Y-4.0236
X2.9429Y-3.7106
X2.9469Y-4.1043
X2.9614Y-4.4083
X2.9626Y-4.4557
X2.9715Y-4.0453
X2.9724Y-4.0748
X2.9823Y-4.4291
X3.3169Y-3.6909
X3.3346Y-3.7165
X3.3366Y-3.5039
X3.3366Y-4.0453
X3.3411Y-4.2564
X3.3573Y-4.0846
X3.3701Y-4.2441
X3.374Y-3.4291
X3.3858Y-3.7087
X3.3858Y-3.8622
X3.4052Y-4.1058
X3.4252Y-4.4193
X3.435Y-3.8819
X3.4409Y-4.315
X3.4646Y-3.5315
X3.4646Y-3.6102
X3.4646Y-4.4193
X3.4764Y-4.0157
X3.4876Y-3.7244
X3.4925Y-3.9291
X3.5236Y-3.7195
X3.5347Y-4.3071
X3.5394Y-3.9134
X3.5448Y-3.5236
X3.5709Y-3.9016
X3.5728Y-4.3012
X3.5778Y-3.5138
X3.6496Y-3.9724
X3.7756Y-3.752
X3.8307Y-3.7362
X3.9721Y-4.1663
X4.0039Y-4.1663
X4.1693Y-3.7244
X4.1929Y-3.7638
X4.2913Y-3.5138
X4.2963Y-3.9089
X4.2963Y-4.3027
X4.324Y-4.3175
X4.3261Y-3.919
X4.3307Y-3.5236
X4.3602Y-3.937
X4.3602Y-4.3228
X4.3674Y-3.5354
X4.4016Y-3.7087
X4.4134Y-3.8307
X4.4567Y-3.7165
X4.4936Y-3.5128
X4.4951Y-4.2441
X4.5Y-3.9055
X4.5118Y-4.0748
X4.5197Y-4.3898
X4.5354Y-4.0945
X4.5403Y-4.418
X4.8897Y-3.6989
X4.8937Y-4.0669
X4.9016Y-4.4193
X4.9016Y-4.4587
X4.9114Y-3.7303
X4.9114Y-4.1043
X4.9213Y-3.6811
X4.9291Y-4.0512
X4.9409Y-4.4094
X4.9488Y-3.4606
X4.9488Y-3.8976
X4.9508Y-4.252
X4.9528Y-3.5276
X4.9528Y-3.8307
X4.9803Y-4.1142
X4.9902Y-3.7402
X4.9902Y-4.4094
X5.0276Y-3.8898
X5.0295Y-4.2028
X5.0386Y-4.315
X5.0787Y-3.937
X5.1083Y-3.5433
X5.1181Y-4.315
X5.128Y-3.937
X5.1476Y-3.5138
X5.1476Y-3.5531
X5.1476Y-3.9075
X5.1476Y-4.3012
X3.0984Y-3.874
X3.0984Y-3.9252
X3.0984Y-3.9764
X3.0984Y-4.0276
X3.0984Y-4.0787
X3.1496Y-3.874
X3.1496Y-3.9252
X3.1496Y-3.9764
X3.1496Y-4.0276
X3.1496Y-4.0787
X3.2008Y-3.874
X3.2008Y-3.9252
X3.2008Y-3.9764
X3.2008Y-4.0276
X3.2008Y-4.0787
X3.0984Y-3.5
X3.0984Y-3.5512
X3.0984Y-3.6024
X3.0984Y-3.6535
X3.0984Y-3.7047
X3.1496Y-3.5
X3.1496Y-3.5512
X3.1496Y-3.6024
X3.1496Y-3.6535
X3.1496Y-3.7047
X3.2008Y-3.5
X3.2008Y-3.5512
X3.2008Y-3.6024
X3.2008Y-3.6535
X3.2008Y-3.7047
X4.6732Y-4.2283
X4.6732Y-4.2795
X4.6732Y-4.3307
X4.6732Y-4.3819
X4.6732Y-4.4331
X4.7244Y-4.2283
X4.7244Y-4.2795
X4.7244Y-4.3307
X4.7244Y-4.3819
X4.7244Y-4.4331
X4.7756Y-4.2283
X4.7756Y-4.2795
X4.7756Y-4.3307
X4.7756Y-4.3819
X4.7756Y-4.4331
X4.6732Y-3.874
X4.6732Y-3.9252
X4.6732Y-3.9764
X4.6732Y-4.0276
X4.6732Y-4.0787
X4.7244Y-3.874
X4.7244Y-3.9252
X4.7244Y-3.9764
X4.7244Y-4.0276
X4.7244Y-4.0787
X4.7756Y-3.874
X4.7756Y-3.9252
X4.7756Y-3.9764
X4.7756Y-4.0276
X4.7756Y-4.0787
X4.6732Y-3.5
X4.6732Y-3.5512
X4.6732Y-3.6024
X4.6732Y-3.6535
X4.6732Y-3.7047
X4.7244Y-3.5
X4.7244Y-3.5512
X4.7244Y-3.6024
X4.7244Y-3.6535
X4.7244Y-3.7047
X4.7756Y-3.5
X4.7756Y-3.5512
X4.7756Y-3.6024
X4.7756Y-3.6535
X4.7756Y-3.7047
X3.0984Y-4.2283
X3.0984Y-4.2795
X3.0984Y-4.3307
X3.0984Y-4.3819
X3.0984Y-4.4331
X3.1496Y-4.2283
X3.1496Y-4.2795
X3.1496Y-4.3307
X3.1496Y-4.3819
X3.1496Y-4.4331
X3.2008Y-4.2283
X3.2008Y-4.2795
X3.2008Y-4.3307
X3.2008Y-4.3819
X3.2008Y-4.4331
T3
X3.787Y-4.0354
X3.887Y-4.0354
X3.987Y-4.0354
X4.087Y-4.0354
X3.987Y-3.6417
X4.087Y-3.6417
X3.787Y-4.237
X3.887Y-4.237
X3.787Y-3.8386
X3.887Y-3.8386
X3.987Y-3.8386
X4.087Y-3.8386
T4
X3.7402Y-3.5433
X4.1339Y-4.3307
T0
M30
